<svg width="64" height="64" viewBox="0 0 64 64" fill="none" xmlns="http://www.w3.org/2000/svg">
<g clip-path="url(#clip0_1_42)">
<g clip-path="url(#clip1_1_42)">
<path d="M0 32C0 8 8 0 32 0C56 0 64 8 64 32C64 56 56 64 32 64C8 64 0 56 0 32Z" fill="#F6F6F7"/>
<path fill-rule="evenodd" clip-rule="evenodd" d="M37.0911 41.4555C37.0911 41.8572 36.7655 42.1828 36.3638 42.1828H25.417C25.1108 42.1828 24.8418 42.377 24.7098 42.6533C23.8873 44.3744 22.1475 45.5768 20.1214 45.5768C16.999 45.5768 14.5214 42.7598 15.1153 39.5355C15.4887 37.5331 17.1008 35.8871 19.1032 35.4968C21.5624 35.0238 23.7581 36.3082 24.7106 38.3161C24.8422 38.5935 25.1117 38.7889 25.4188 38.7889H33.2342C33.5895 38.7889 33.8901 38.5311 33.9699 38.1849C34.7928 34.6149 37.4874 31.774 40.9585 30.7288L40.962 30.7283C40.9697 30.7283 40.9755 30.7211 40.9738 30.7135L38.7287 20.6905C38.6543 20.3583 38.3594 20.1222 38.019 20.1222H32.7274C32.3258 20.1222 32.0002 19.7966 32.0002 19.3949V17.4555C32.0002 17.0539 32.3258 16.7283 32.7274 16.7283H38.6014C40.1796 16.7283 41.5541 17.8313 41.9105 19.3755L44.935 32.811C45.0374 33.2657 44.6916 33.698 44.2255 33.698H43.879C40.1287 33.698 37.0911 36.7355 37.0911 40.4858V41.4555ZM18.4244 40.4858C18.4244 41.4192 19.188 42.1828 20.1214 42.1828C21.0547 42.1828 21.8184 41.4192 21.8184 40.4858C21.8184 39.5525 21.0547 38.7889 20.1214 38.7889C19.188 38.7889 18.4244 39.5525 18.4244 40.4858ZM38.7882 40.4854C38.7882 37.6684 41.0622 35.3945 43.8791 35.3945C46.6961 35.3945 48.97 37.6684 48.97 40.4854C48.97 43.3023 46.6961 45.5763 43.8791 45.5763C41.0622 45.5763 38.7882 43.3023 38.7882 40.4854ZM42.1822 40.4854C42.1822 41.4187 42.9458 42.1823 43.8791 42.1823C44.8125 42.1823 45.5761 41.4187 45.5761 40.4854C45.5761 39.552 44.8125 38.7884 43.8791 38.7884C42.9458 38.7884 42.1822 39.552 42.1822 40.4854Z" fill="#307FE2"/>
</g>
</g>
<defs>
<clipPath id="clip0_1_42">
<rect width="64" height="64" fill="white"/>
</clipPath>
<clipPath id="clip1_1_42">
<rect width="64" height="64" fill="white"/>
</clipPath>
</defs>
</svg>
