<svg width="64" height="64" viewBox="0 0 64 64" fill="none" xmlns="http://www.w3.org/2000/svg">
<g clip-path="url(#clip0_1_51)">
<g clip-path="url(#clip1_1_51)">
<g clip-path="url(#clip2_1_51)">
<path d="M0 32C0 8 8 0 32 0C56 0 64 8 64 32C64 56 56 64 32 64C8 64 0 56 0 32Z" fill="#F6F6F7"/>
<path d="M34.5 21.1667C33.5833 21.1667 32.7989 20.84 32.1467 20.1867C31.4933 19.5344 31.1667 18.75 31.1667 17.8333C31.1667 16.9167 31.4933 16.1317 32.1467 15.4783C32.7989 14.8261 33.5833 14.5 34.5 14.5C35.4167 14.5 36.2017 14.8261 36.855 15.4783C37.5072 16.1317 37.8333 16.9167 37.8333 17.8333C37.8333 18.75 37.5072 19.5344 36.855 20.1867C36.2017 20.84 35.4167 21.1667 34.5 21.1667ZM25.875 50.3333C25.2639 50.3333 24.7778 50.1183 24.4167 49.6883C24.0556 49.2572 23.9444 48.75 24.0833 48.1667L28.3333 26.8333L25.3333 28V32C25.3333 32.4722 25.1739 32.8678 24.855 33.1867C24.535 33.5067 24.1389 33.6667 23.6667 33.6667C23.1944 33.6667 22.7983 33.5067 22.4783 33.1867C22.1594 32.8678 22 32.4722 22 32V28.0417C22 27.375 22.1806 26.7639 22.5417 26.2083C22.9028 25.6528 23.4028 25.2361 24.0417 24.9583L30.4167 22.25C31.2222 21.9167 32.0417 21.8817 32.875 22.145C33.7083 22.4094 34.3611 22.9167 34.8333 23.6667L36.5 26.3333C37.1111 27.3056 37.9028 28.1389 38.875 28.8333C39.8472 29.5278 40.9583 29.9861 42.2083 30.2083C42.625 30.2639 42.9722 30.4511 43.25 30.77C43.5278 31.09 43.6667 31.4444 43.6667 31.8333C43.6667 32.3611 43.4794 32.7989 43.105 33.1467C42.7294 33.4933 42.3056 33.625 41.8333 33.5417C40.3611 33.3194 38.9933 32.8539 37.73 32.145C36.4656 31.4372 35.3889 30.5556 34.5 29.5L33.5 34.5L35.9583 36.8333C36.2917 37.1667 36.5489 37.5344 36.73 37.9367C36.91 38.34 37 38.7778 37 39.25V48.6667C37 49.1389 36.8406 49.5344 36.5217 49.8533C36.2017 50.1733 35.8056 50.3333 35.3333 50.3333C34.8611 50.3333 34.4656 50.1733 34.1467 49.8533C33.8267 49.5344 33.6667 49.1389 33.6667 48.6667V40.3333L30.1667 37L27.4583 49.0833C27.375 49.4167 27.1878 49.7083 26.8967 49.9583C26.6044 50.2083 26.2639 50.3333 25.875 50.3333Z" fill="#307FE2"/>
</g>
</g>
</g>
<defs>
<clipPath id="clip0_1_51">
<rect width="64" height="64" fill="white"/>
</clipPath>
<clipPath id="clip1_1_51">
<rect width="64" height="64" fill="white"/>
</clipPath>
<clipPath id="clip2_1_51">
<rect width="64" height="64" fill="white"/>
</clipPath>
</defs>
</svg>
