<svg width="64" height="64" viewBox="0 0 64 64" fill="none" xmlns="http://www.w3.org/2000/svg">
<g clip-path="url(#clip0_1_46)">
<g clip-path="url(#clip1_1_46)">
<g clip-path="url(#clip2_1_46)">
<path d="M0 32C0 8 8 0 32 0C56 0 64 8 64 32C64 56 56 64 32 64C8 64 0 56 0 32Z" fill="#F6F6F7"/>
<path d="M18.0085 23.5455V41H14.3182V27.0483H14.2159L10.2188 29.554V26.2812L14.5398 23.5455H18.0085ZM28.6683 41.2386C27.3558 41.2386 26.1882 41.0256 25.1655 40.5994C24.1484 40.1676 23.3501 39.5795 22.7706 38.8352C22.1911 38.0909 21.9013 37.2472 21.9013 36.304C21.9013 35.5767 22.0661 34.9091 22.3956 34.3011C22.7308 33.6875 23.1854 33.179 23.7592 32.7756C24.3331 32.3665 24.9751 32.1051 25.6854 31.9915V31.8722C24.7536 31.6847 23.9979 31.233 23.4183 30.517C22.8388 29.7955 22.549 28.9574 22.549 28.0028C22.549 27.0994 22.8132 26.2955 23.3416 25.5909C23.87 24.8807 24.5945 24.3239 25.5149 23.9205C26.4411 23.5114 27.4922 23.3068 28.6683 23.3068C29.8445 23.3068 30.8928 23.5114 31.8132 23.9205C32.7393 24.3295 33.4666 24.8892 33.995 25.5994C34.5234 26.304 34.7905 27.1051 34.7962 28.0028C34.7905 28.9631 34.495 29.8011 33.9098 30.517C33.3246 31.233 32.5746 31.6847 31.6598 31.8722V31.9915C32.3587 32.1051 32.9922 32.3665 33.5604 32.7756C34.1342 33.179 34.5888 33.6875 34.924 34.3011C35.2649 34.9091 35.4382 35.5767 35.4439 36.304C35.4382 37.2472 35.1456 38.0909 34.5661 38.8352C33.9865 39.5795 33.1854 40.1676 32.1626 40.5994C31.1456 41.0256 29.9808 41.2386 28.6683 41.2386ZM28.6683 38.5284C29.2536 38.5284 29.7649 38.4233 30.2024 38.2131C30.6399 37.9972 30.9808 37.7017 31.2251 37.3267C31.4751 36.946 31.6001 36.5085 31.6001 36.0142C31.6001 35.5085 31.4723 35.0625 31.2166 34.6761C30.9609 34.2841 30.6143 33.9773 30.1768 33.7557C29.7393 33.5284 29.2365 33.4148 28.6683 33.4148C28.1058 33.4148 27.603 33.5284 27.1598 33.7557C26.7166 33.9773 26.3672 34.2841 26.1115 34.6761C25.8615 35.0625 25.7365 35.5085 25.7365 36.0142C25.7365 36.5085 25.8587 36.946 26.103 37.3267C26.3473 37.7017 26.6911 37.9972 27.1342 38.2131C27.5774 38.4233 28.0888 38.5284 28.6683 38.5284ZM28.6683 30.7301C29.157 30.7301 29.5916 30.6307 29.9723 30.4318C30.353 30.233 30.6513 29.9574 30.8672 29.6051C31.0831 29.2528 31.1911 28.8466 31.1911 28.3864C31.1911 27.9318 31.0831 27.5341 30.8672 27.1932C30.6513 26.8466 30.3558 26.5767 29.9808 26.3835C29.6058 26.1847 29.1683 26.0852 28.6683 26.0852C28.174 26.0852 27.7365 26.1847 27.3558 26.3835C26.9751 26.5767 26.6768 26.8466 26.4609 27.1932C26.2507 27.5341 26.1456 27.9318 26.1456 28.3864C26.1456 28.8466 26.2536 29.2528 26.4695 29.6051C26.6854 29.9574 26.9837 30.233 27.3643 30.4318C27.745 30.6307 28.1797 30.7301 28.6683 30.7301ZM43.2401 38.3409V26.2727H46.2912V38.3409H43.2401ZM38.7315 33.8324V30.7812H50.7997V33.8324H38.7315Z" fill="#307FE2"/>
</g>
</g>
</g>
<defs>
<clipPath id="clip0_1_46">
<rect width="64" height="64" fill="white"/>
</clipPath>
<clipPath id="clip1_1_46">
<rect width="64" height="64" fill="white"/>
</clipPath>
<clipPath id="clip2_1_46">
<rect width="64" height="64" fill="white"/>
</clipPath>
</defs>
</svg>
