<svg width="64" height="64" viewBox="0 0 64 64" fill="none" xmlns="http://www.w3.org/2000/svg">
<g clip-path="url(#clip0_1_31)">
<g clip-path="url(#clip1_1_31)">
<g clip-path="url(#clip2_1_31)">
<path d="M0 32C0 8 8 0 32 0C56 0 64 8 64 32C64 56 56 64 32 64C8 64 0 56 0 32Z" fill="#F6F6F7"/>
<path d="M4 32C4 21.1804 5.81617 14.2855 10.0509 10.0509C14.2855 5.81617 21.1804 4 32 4C42.8196 4 49.7145 5.81617 53.9491 10.0509C58.1838 14.2855 60 21.1804 60 32C60 42.8196 58.1838 49.7145 53.9491 53.9491C49.7145 58.1838 42.8196 60 32 60C21.1804 60 14.2855 58.1838 10.0509 53.9491C5.81617 49.7145 4 42.8196 4 32Z" stroke="#307FE2" stroke-width="2"/>
<mask id="mask0_1_31" style="mask-type:luminance" maskUnits="userSpaceOnUse" x="12" y="12" width="40" height="40">
<path d="M52 12H12V52H52V12Z" fill="white"/>
</mask>
<g mask="url(#mask0_1_31)">
<path d="M16.0645 43H30.918V39.9092H21.0596V39.748L25.7178 35.3242C29.4385 31.75 30.5957 30.0654 30.5957 27.5752V27.5459C30.5957 24.0596 27.6367 21.4961 23.4033 21.4961C19.1113 21.4961 15.8594 24.2646 15.8594 28.1318V28.2344H19.4043V28.1318C19.4482 26.0957 21.0889 24.5283 23.4326 24.5283C25.4688 24.5283 26.8896 25.876 26.9043 27.7656V27.7949C26.9043 29.3623 26.3037 30.4316 23.5352 33.1416L16.0645 40.4219V43ZM40.5674 43.3662C45.2402 43.3662 48.5068 40.3779 48.5068 36.0273V35.998C48.5068 31.9844 45.6064 29.0693 41.5781 29.0693C39.4541 29.0693 37.7109 29.9043 36.7881 31.3252H36.7148L37.3008 24.9531H47.2617V21.8623H34.2832L33.2725 34.1523H36.5684C36.8174 33.6836 37.1689 33.2734 37.5645 32.9512C38.3701 32.2773 39.4102 31.9111 40.6113 31.9111C43.0869 31.9111 44.8594 33.6396 44.8594 36.0566V36.0859C44.8594 38.5615 43.1162 40.29 40.5967 40.29C38.3701 40.29 36.7588 38.9277 36.4512 37.1553L36.4365 37.0527H32.8916L32.9062 37.2432C33.1846 40.7441 36.1729 43.3662 40.5674 43.3662Z" fill="#307FE2"/>
</g>
</g>
</g>
</g>
<defs>
<clipPath id="clip0_1_31">
<rect width="64" height="64" fill="white"/>
</clipPath>
<clipPath id="clip1_1_31">
<rect width="64" height="64" fill="white"/>
</clipPath>
<clipPath id="clip2_1_31">
<rect width="64" height="64" fill="white"/>
</clipPath>
</defs>
</svg>
